<svg xmlns="http://www.w3.org/2000/svg" viewBox="0 0 512 512">
  <defs>
    <linearGradient id="fondo" x1="70" y1="55" x2="450" y2="470" gradientUnits="userSpaceOnUse">
      <stop stop-color="#F6D9E3"/>
      <stop offset="1" stop-color="#E6DEF7"/>
    </linearGradient>
    <filter id="sombra" x="-20%" y="-20%" width="140%" height="140%">
      <feDropShadow dx="0" dy="14" stdDeviation="14" flood-color="#9A79C4" flood-opacity=".22"/>
    </filter>
  </defs>
  <rect width="512" height="512" rx="118" fill="url(#fondo)"/>
  <circle cx="95" cy="92" r="18" fill="#FFF" opacity=".75"/>
  <circle cx="421" cy="116" r="11" fill="#FFF" opacity=".7"/>
  <path d="M83 390c35 31 74 46 117 48" fill="none" stroke="#FFF" stroke-width="12" stroke-linecap="round" opacity=".45"/>
  <g filter="url(#sombra)">
    <rect x="121" y="76" width="270" height="360" rx="50" fill="#FFFDFB"/>
    <rect x="153" y="111" width="206" height="90" rx="24" fill="#FDF6EE" stroke="#E79CB5" stroke-width="8"/>
    <text x="328" y="175" text-anchor="end" font-family="Arial, sans-serif" font-size="55" font-weight="700" fill="#5B4A52">24</text>
    <g fill="#E79CB5">
      <rect x="153" y="232" width="54" height="54" rx="18"/>
      <rect x="229" y="232" width="54" height="54" rx="18"/>
    </g>
    <g fill="#B79EE0">
      <rect x="305" y="232" width="54" height="54" rx="18"/>
      <rect x="153" y="306" width="54" height="54" rx="18"/>
      <rect x="229" y="306" width="54" height="54" rx="18"/>
    </g>
    <rect x="305" y="306" width="54" height="54" rx="18" fill="#F2B98D"/>
    <path d="M180 249v20M170 259h20M246 259h20M322 259h20M332 249v20" stroke="#FFF" stroke-width="7" stroke-linecap="round"/>
    <circle cx="180" cy="333" r="5" fill="#FFF"/>
    <circle cx="180" cy="348" r="5" fill="#FFF"/>
    <path d="M246 333h20M246 348h20M322 333l20 20M342 333l-20 20" stroke="#FFF" stroke-width="7" stroke-linecap="round"/>
  </g>
</svg>
